{"accessors" : [{"bufferView" : 0, "byteOffset" : 0, "componentType" : 5123, "count" : 2316, "type" : "SCALAR", "max" : [2277], "min" : [0]}, {"bufferView" : 1, "byteOffset" : 0, "componentType" : 5126, "count" : 2278, "type" : "VEC3", "max" : [1.183722972869873, 0.09662500023841858, -1.1830699443817139], "min" : [0.8362659811973572, -0.8209739923477173, -2.1067419052124023], "name" : "POSITION"}, {"bufferView" : 1, "byteOffset" : 12, "componentType" : 5126, "count" : 2278, "type" : "VEC3", "max" : [0.9829466938972473, 0.9978702068328857, 0.9975308775901794], "min" : [-1.0000044107437134, -0.9978702068328857, -0.9975308775901794], "name" : "NORMAL"}, {"bufferView" : 0, "byteOffset" : 4632, "componentType" : 5123, "count" : 6432, "type" : "SCALAR", "max" : [6306], "min" : [0]}, {"bufferView" : 2, "byteOffset" : 0, "componentType" : 5126, "count" : 6307, "type" : "VEC3", "max" : [1.1941030025482178, -0.004222000017762184, -1.2845849990844727], "min" : [0.8994590044021606, -0.7201269865036011, -2.0052270889282227], "name" : "POSITION"}, {"bufferView" : 2, "byteOffset" : 12, "componentType" : 5126, "count" : 6307, "type" : "VEC3", "max" : [1.0000044107437134, 1.0000044107437134, 0.9998992681503296], "min" : [-1.0000044107437134, -1.0000044107437134, -0.9998992681503296], "name" : "NORMAL"}, {"bufferView" : 0, "byteOffset" : 17496, "componentType" : 5123, "count" : 6432, "type" : "SCALAR", "max" : [6302], "min" : [0]}, {"bufferView" : 3, "byteOffset" : 0, "componentType" : 5126, "count" : 6303, "type" : "VEC3", "max" : [-0.8977310061454773, -0.004222000017762184, -1.2845849990844727], "min" : [-1.1923749446868896, -0.7201269865036011, -2.005228042602539], "name" : "POSITION"}, {"bufferView" : 3, "byteOffset" : 12, "componentType" : 5126, "count" : 6303, "type" : "VEC3", "max" : [1.0000044107437134, 1.0000044107437134, 0.9998992681503296], "min" : [-1.0000044107437134, -1.0000044107437134, -0.9997689723968506], "name" : "NORMAL"}, {"bufferView" : 0, "byteOffset" : 30360, "componentType" : 5123, "count" : 2316, "type" : "SCALAR", "max" : [2277], "min" : [0]}, {"bufferView" : 4, "byteOffset" : 0, "componentType" : 5126, "count" : 2278, "type" : "VEC3", "max" : [-0.8345379829406738, 0.09662500023841858, -1.1830699443817139], "min" : [-1.1819950342178345, -0.8209739923477173, -2.1067419052124023], "name" : "POSITION"}, {"bufferView" : 4, "byteOffset" : 12, "componentType" : 5126, "count" : 2278, "type" : "VEC3", "max" : [1.0000044107437134, 0.9978702068328857, 0.9975308775901794], "min" : [-0.9829466938972473, -0.9978702068328857, -0.9975308775901794], "name" : "NORMAL"}, {"bufferView" : 0, "byteOffset" : 34992, "componentType" : 5123, "count" : 6432, "type" : "SCALAR", "max" : [6302], "min" : [0]}, {"bufferView" : 5, "byteOffset" : 0, "componentType" : 5126, "count" : 6303, "type" : "VEC3", "max" : [-0.8977310061454773, -0.01620900072157383, 2.3042399883270264], "min" : [-1.1923749446868896, -0.7321130037307739, 1.583598017692566], "name" : "POSITION"}, {"bufferView" : 5, "byteOffset" : 12, "componentType" : 5126, "count" : 6303, "type" : "VEC3", "max" : [1.0000044107437134, 1.0000044107437134, 0.9998992681503296], "min" : [-1.0000044107437134, -1.0000044107437134, -0.9997689723968506], "name" : "NORMAL"}, {"bufferView" : 0, "byteOffset" : 47856, "componentType" : 5123, "count" : 2316, "type" : "SCALAR", "max" : [2277], "min" : [0]}, {"bufferView" : 6, "byteOffset" : 0, "componentType" : 5126, "count" : 2278, "type" : "VEC3", "max" : [-0.8345379829406738, 0.08463799953460693, 2.405755043029785], "min" : [-1.1819950342178345, -0.8329610228538513, 1.4820829629898071], "name" : "POSITION"}, {"bufferView" : 6, "byteOffset" : 12, "componentType" : 5126, "count" : 2278, "type" : "VEC3", "max" : [1.0000044107437134, 0.9978702068328857, 0.9975308775901794], "min" : [-0.9829466938972473, -0.9978702068328857, -0.9975308775901794], "name" : "NORMAL"}, {"bufferView" : 0, "byteOffset" : 52488, "componentType" : 5123, "count" : 6432, "type" : "SCALAR", "max" : [6306], "min" : [0]}, {"bufferView" : 7, "byteOffset" : 0, "componentType" : 5126, "count" : 6307, "type" : "VEC3", "max" : [1.1808769702911377, -0.01620900072157383, 2.3042399883270264], "min" : [0.8862320184707642, -0.7321130037307739, 1.583598017692566], "name" : "POSITION"}, {"bufferView" : 7, "byteOffset" : 12, "componentType" : 5126, "count" : 6307, "type" : "VEC3", "max" : [1.0000044107437134, 1.0000044107437134, 0.9997689723968506], "min" : [-1.0000044107437134, -1.0000044107437134, -0.9998992681503296], "name" : "NORMAL"}, {"bufferView" : 0, "byteOffset" : 65352, "componentType" : 5123, "count" : 2316, "type" : "SCALAR", "max" : [2277], "min" : [0]}, {"bufferView" : 8, "byteOffset" : 0, "componentType" : 5126, "count" : 2278, "type" : "VEC3", "max" : [1.1704959869384766, 0.08463799953460693, 2.4057559967041016], "min" : [0.8230400085449219, -0.8329610228538513, 1.4820829629898071], "name" : "POSITION"}, {"bufferView" : 8, "byteOffset" : 12, "componentType" : 5126, "count" : 2278, "type" : "VEC3", "max" : [0.9829466938972473, 0.9978702068328857, 0.9975308775901794], "min" : [-1.0000044107437134, -0.9978702068328857, -0.9975308775901794], "name" : "NORMAL"}, {"bufferView" : 0, "byteOffset" : 69984, "componentType" : 5123, "count" : 6, "type" : "SCALAR", "max" : [5], "min" : [0]}, {"bufferView" : 9, "byteOffset" : 0, "componentType" : 5126, "count" : 6, "type" : "VEC3", "max" : [0.49358201026916504, -0.07253199815750122, 3.190171003341675], "min" : [-0.49358201026916504, -0.10958799719810486, 3.142704963684082], "name" : "POSITION"}, {"bufferView" : 9, "byteOffset" : 12, "componentType" : 5126, "count" : 6, "type" : "VEC3", "max" : [0.03240170329809189, 0.7878414392471313, 0.6150323748588562], "min" : [-0.03240170329809189, 0.7878414392471313, 0.6150323748588562], "name" : "NORMAL"}, {"bufferView" : 9, "byteOffset" : 24, "componentType" : 5126, "count" : 6, "type" : "VEC2", "max" : [0, 1], "min" : [0, 1], "name" : "TEXCOORD_0"}, {"bufferView" : 0, "byteOffset" : 69996, "componentType" : 5123, "count" : 7464, "type" : "SCALAR", "max" : [7346], "min" : [0]}, {"bufferView" : 10, "byteOffset" : 0, "componentType" : 5126, "count" : 7347, "type" : "VEC3", "max" : [1.2038819789886475, 0.9967769980430603, 3.2241549491882324], "min" : [-1.2038819789886475, -0.6236609816551208, -2.94350004196167], "name" : "POSITION"}, {"bufferView" : 10, "byteOffset" : 12, "componentType" : 5126, "count" : 7347, "type" : "VEC3", "max" : [1.0000044107437134, 1.0000044107437134, 1.0000044107437134], "min" : [-1.0000044107437134, -1.0000044107437134, -1.0000044107437134], "name" : "NORMAL"}, {"bufferView" : 10, "byteOffset" : 24, "componentType" : 5126, "count" : 7347, "type" : "VEC2", "max" : [0, 1], "min" : [0, 1], "name" : "TEXCOORD_0"}, {"bufferView" : 0, "byteOffset" : 84924, "componentType" : 5123, "count" : 384, "type" : "SCALAR", "max" : [383], "min" : [0]}, {"bufferView" : 11, "byteOffset" : 0, "componentType" : 5126, "count" : 384, "type" : "VEC3", "max" : [1.024029016494751, 0.47131699323654175, -2.7056779861450195], "min" : [-1.024029016494751, 0.19925199449062347, -2.834383964538574], "name" : "POSITION"}, {"bufferView" : 11, "byteOffset" : 12, "componentType" : 5126, "count" : 384, "type" : "VEC3", "max" : [0.531071662902832, 0.5670942068099976, -0.7917136549949646], "min" : [-0.531071662902832, -0.22010350227355957, -0.9971452951431274], "name" : "NORMAL"}, {"bufferView" : 11, "byteOffset" : 24, "componentType" : 5126, "count" : 384, "type" : "VEC2", "max" : [0, 1], "min" : [0, 1], "name" : "TEXCOORD_0"}, {"bufferView" : 0, "byteOffset" : 85692, "componentType" : 5123, "count" : 570, "type" : "SCALAR", "max" : [545], "min" : [0]}, {"bufferView" : 12, "byteOffset" : 0, "componentType" : 5126, "count" : 546, "type" : "VEC3", "max" : [0.9688670039176941, 0.41765299439430237, 3.0651049613952637], "min" : [-0.9688670039176941, -0.23175199329853058, -2.816809892654419], "name" : "POSITION"}, {"bufferView" : 12, "byteOffset" : 12, "componentType" : 5126, "count" : 546, "type" : "VEC3", "max" : [0.9627401232719421, 0.5758006572723389, 0.8741939663887024], "min" : [-0.9627401232719421, -0.9786587953567505, -0.9642096161842346], "name" : "NORMAL"}, {"bufferView" : 12, "byteOffset" : 24, "componentType" : 5126, "count" : 546, "type" : "VEC2", "max" : [0, 1], "min" : [0, 1], "name" : "TEXCOORD_0"}, {"bufferView" : 0, "byteOffset" : 86832, "componentType" : 5123, "count" : 66, "type" : "SCALAR", "max" : [59], "min" : [0]}, {"bufferView" : 13, "byteOffset" : 0, "componentType" : 5126, "count" : 60, "type" : "VEC3", "max" : [1.043239951133728, 0.17492400109767914, 3.1087310314178467], "min" : [-1.043239951133728, -0.11498899757862091, -2.912609100341797], "name" : "POSITION"}, {"bufferView" : 13, "byteOffset" : 12, "componentType" : 5126, "count" : 60, "type" : "VEC3", "max" : [0.5076338052749634, 0.4887325167655945, 0.7095472812652588], "min" : [-0.5076338052749634, 0.032298628240823746, -0.997757613658905], "name" : "NORMAL"}, {"bufferView" : 13, "byteOffset" : 24, "componentType" : 5126, "count" : 60, "type" : "VEC2", "max" : [0, 1], "min" : [0, 1], "name" : "TEXCOORD_0"}, {"bufferView" : 0, "byteOffset" : 86964, "componentType" : 5123, "count" : 642, "type" : "SCALAR", "max" : [607], "min" : [0]}, {"bufferView" : 14, "byteOffset" : 0, "componentType" : 5126, "count" : 608, "type" : "VEC3", "max" : [1.2017580270767212, 0.9456440210342407, 3.195971965789795], "min" : [-1.2017580270767212, -0.6236609816551208, -2.9049689769744873], "name" : "POSITION"}, {"bufferView" : 14, "byteOffset" : 12, "componentType" : 5126, "count" : 608, "type" : "VEC3", "max" : [0.9312818646430969, 0.9840501546859741, 0.987087070941925], "min" : [-0.9312818646430969, -0.9999842047691345, -0.4542071521282196], "name" : "NORMAL"}, {"bufferView" : 14, "byteOffset" : 24, "componentType" : 5126, "count" : 608, "type" : "VEC2", "max" : [0, 1], "min" : [0, 1], "name" : "TEXCOORD_0"}, {"bufferView" : 0, "byteOffset" : 88248, "componentType" : 5123, "count" : 42, "type" : "SCALAR", "max" : [36], "min" : [0]}, {"bufferView" : 15, "byteOffset" : 0, "componentType" : 5126, "count" : 37, "type" : "VEC3", "max" : [0.42196300625801086, -0.15069100260734558, 3.176367998123169], "min" : [-0.42196300625801086, -0.4502109885215759, 3.1666810512542725], "name" : "POSITION"}, {"bufferView" : 15, "byteOffset" : 12, "componentType" : 5126, "count" : 37, "type" : "VEC3", "max" : [0.00830014981329441, 0.03610065579414368, 0.9999719858169556], "min" : [-0.00830014981329441, 0.007299795281141996, 0.9993181228637695], "name" : "NORMAL"}, {"bufferView" : 15, "byteOffset" : 24, "componentType" : 5126, "count" : 37, "type" : "VEC2", "max" : [0, 1], "min" : [0, 1], "name" : "TEXCOORD_0"}, {"bufferView" : 0, "byteOffset" : 88332, "componentType" : 5123, "count" : 150, "type" : "SCALAR", "max" : [135], "min" : [0]}, {"bufferView" : 16, "byteOffset" : 0, "componentType" : 5126, "count" : 136, "type" : "VEC3", "max" : [1.0216619968414307, 0.916916012763977, 1.385599970817566], "min" : [-1.0216619968414307, 0.4360710084438324, -2.053654909133911], "name" : "POSITION"}, {"bufferView" : 16, "byteOffset" : 12, "componentType" : 5126, "count" : 136, "type" : "VEC3", "max" : [0.8877116441726685, 0.9372029304504395, 0.41751882433891296], "min" : [-0.8877116441726685, 0.46040600538253784, -0.32620102167129517], "name" : "NORMAL"}, {"bufferView" : 16, "byteOffset" : 24, "componentType" : 5126, "count" : 136, "type" : "VEC2", "max" : [0, 1], "min" : [0, 1], "name" : "TEXCOORD_0"}], "asset" : {"generator" : "Aspose.3D 23.7.0", "version" : "2.0"}, "buffers" : [{"uri" : "data:application/octet-stream;base64,", "byteLength" : 1226876}], "bufferViews" : [{"buffer" : 0, "byteOffset" : 0, "byteLength" : 88632, "target" : 34963}, {"buffer" : 0, "byteOffset" : 88636, "byteLength" : 55584, "byteStride" : 24, "target" : 34962}, {"buffer" : 0, "byteOffset" : 144224, "byteLength" : 154368, "byteStride" : 24, "target" : 34962}, {"buffer" : 0, "byteOffset" : 298596, "byteLength" : 154368, "byteStride" : 24, "target" : 34962}, {"buffer" : 0, "byteOffset" : 452968, "byteLength" : 55584, "byteStride" : 24, "target" : 34962}, {"buffer" : 0, "byteOffset" : 508556, "byteLength" : 154368, "byteStride" : 24, "target" : 34962}, {"buffer" : 0, "byteOffset" : 662928, "byteLength" : 55584, "byteStride" : 24, "target" : 34962}, {"buffer" : 0, "byteOffset" : 718516, "byteLength" : 154368, "byteStride" : 24, "target" : 34962}, {"buffer" : 0, "byteOffset" : 872888, "byteLength" : 55584, "byteStride" : 24, "target" : 34962}, {"buffer" : 0, "byteOffset" : 928476, "byteLength" : 192, "byteStride" : 32, "target" : 34962}, {"buffer" : 0, "byteOffset" : 928672, "byteLength" : 238848, "byteStride" : 32, "target" : 34962}, {"buffer" : 0, "byteOffset" : 1167524, "byteLength" : 12288, "byteStride" : 32, "target" : 34962}, {"buffer" : 0, "byteOffset" : 1179816, "byteLength" : 18240, "byteStride" : 32, "target" : 34962}, {"buffer" : 0, "byteOffset" : 1198060, "byteLength" : 2112, "byteStride" : 32, "target" : 34962}, {"buffer" : 0, "byteOffset" : 1200176, "byteLength" : 20544, "byteStride" : 32, "target" : 34962}, {"buffer" : 0, "byteOffset" : 1220724, "byteLength" : 1344, "byteStride" : 32, "target" : 34962}, {"buffer" : 0, "byteOffset" : 1222072, "byteLength" : 4800, "byteStride" : 32, "target" : 34962}], "materials" : [{"name" : "tire", "pbrMetallicRoughness" : {"baseColorFactor" : [0.019326, 0.019326, 0.019326, 1], "metallicFactor" : 0, "roughnessFactor" : 0.903921569}, "emissiveFactor" : [0, 0, 0], "alphaMode" : "OPAQUE", "doubleSided" : false}, {"name" : "rim", "pbrMetallicRoughness" : {"baseColorFactor" : [0.543634, 0.510078, 0.53231, 1], "metallicFactor" : 0, "roughnessFactor" : 0.903921569}, "emissiveFactor" : [0, 0, 0], "alphaMode" : "OPAQUE", "doubleSided" : false}, {"name" : "rim", "pbrMetallicRoughness" : {"baseColorFactor" : [0.543634, 0.510078, 0.53231, 1], "metallicFactor" : 0, "roughnessFactor" : 0.903921569}, "emissiveFactor" : [0, 0, 0], "alphaMode" : "OPAQUE", "doubleSided" : false}, {"name" : "tire", "pbrMetallicRoughness" : {"baseColorFactor" : [0.019326, 0.019326, 0.019326, 1], "metallicFactor" : 0, "roughnessFactor" : 0.903921569}, "emissiveFactor" : [0, 0, 0], "alphaMode" : "OPAQUE", "doubleSided" : false}, {"name" : "rim", "pbrMetallicRoughness" : {"baseColorFactor" : [0.543634, 0.510078, 0.53231, 1], "metallicFactor" : 0, "roughnessFactor" : 0.903921569}, "emissiveFactor" : [0, 0, 0], "alphaMode" : "OPAQUE", "doubleSided" : false}, {"name" : "tire", "pbrMetallicRoughness" : {"baseColorFactor" : [0.019326, 0.019326, 0.019326, 1], "metallicFactor" : 0, "roughnessFactor" : 0.903921569}, "emissiveFactor" : [0, 0, 0], "alphaMode" : "OPAQUE", "doubleSided" : false}, {"name" : "rim", "pbrMetallicRoughness" : {"baseColorFactor" : [0.543634, 0.510078, 0.53231, 1], "metallicFactor" : 0, "roughnessFactor" : 0.903921569}, "emissiveFactor" : [0, 0, 0], "alphaMode" : "OPAQUE", "doubleSided" : false}, {"name" : "tire", "pbrMetallicRoughness" : {"baseColorFactor" : [0.019326, 0.019326, 0.019326, 1], "metallicFactor" : 0, "roughnessFactor" : 0.903921569}, "emissiveFactor" : [0, 0, 0], "alphaMode" : "OPAQUE", "doubleSided" : false}, {"name" : "chasis", "pbrMetallicRoughness" : {"baseColorFactor" : [0.017739, 0.072673, 0.338614, 1], "metallicFactor" : 0, "roughnessFactor" : 0.903921569}, "emissiveFactor" : [0, 0, 0], "alphaMode" : "OPAQUE", "doubleSided" : false}, {"name" : "chasis_NONE", "pbrMetallicRoughness" : {"baseColorFactor" : [0.017739, 0.072673, 0.338614, 1], "metallicFactor" : 0, "roughnessFactor" : 0.903921569}, "emissiveFactor" : [0, 0, 0], "alphaMode" : "OPAQUE", "doubleSided" : false}, {"name" : "redlight", "pbrMetallicRoughness" : {"baseColorFactor" : [0.289045, 0.006855, 0.031637, 1], "metallicFactor" : 0, "roughnessFactor" : 0.884313725}, "emissiveFactor" : [0, 0, 0], "alphaMode" : "OPAQUE", "doubleSided" : false}, {"name" : "ambar", "pbrMetallicRoughness" : {"baseColorFactor" : [0.8, 0.416797, 0, 1], "metallicFactor" : 0, "roughnessFactor" : 0.903921569}, "emissiveFactor" : [0, 0, 0], "alphaMode" : "OPAQUE", "doubleSided" : false}, {"name" : "light", "pbrMetallicRoughness" : {"baseColorFactor" : [0.705263, 0.705263, 0.705263, 1], "metallicFactor" : 0, "roughnessFactor" : 0.903921569}, "emissiveFactor" : [0, 0, 0], "alphaMode" : "OPAQUE", "doubleSided" : false}, {"name" : "black", "pbrMetallicRoughness" : {"baseColorFactor" : [0, 0, 0, 1], "metallicFactor" : 0, "roughnessFactor" : 0.903921569}, "emissiveFactor" : [0, 0, 0], "alphaMode" : "OPAQUE", "doubleSided" : false}, {"name" : "grey", "pbrMetallicRoughness" : {"baseColorFactor" : [0.152961, 0.155694, 0.142311, 1], "metallicFactor" : 0, "roughnessFactor" : 0.903921569}, "emissiveFactor" : [0, 0, 0], "alphaMode" : "OPAQUE", "doubleSided" : false}, {"name" : "glass", "pbrMetallicRoughness" : {"baseColorFactor" : [0.521125, 0.521125, 0.521125, 1], "metallicFactor" : 0, "roughnessFactor" : 0.903921569}, "emissiveFactor" : [0, 0, 0], "alphaMode" : "OPAQUE", "doubleSided" : false}], "meshes" : [{"primitives" : [{"attributes" : {"POSITION" : 1, "NORMAL" : 2}, "indices" : 0, "material" : 0, "mode" : 4}, {"attributes" : {"POSITION" : 4, "NORMAL" : 5}, "indices" : 3, "material" : 1, "mode" : 4}]}, {"primitives" : [{"attributes" : {"POSITION" : 7, "NORMAL" : 8}, "indices" : 6, "material" : 2, "mode" : 4}, {"attributes" : {"POSITION" : 10, "NORMAL" : 11}, "indices" : 9, "material" : 3, "mode" : 4}]}, {"primitives" : [{"attributes" : {"POSITION" : 13, "NORMAL" : 14}, "indices" : 12, "material" : 4, "mode" : 4}, {"attributes" : {"POSITION" : 16, "NORMAL" : 17}, "indices" : 15, "material" : 5, "mode" : 4}]}, {"primitives" : [{"attributes" : {"POSITION" : 19, "NORMAL" : 20}, "indices" : 18, "material" : 6, "mode" : 4}, {"attributes" : {"POSITION" : 22, "NORMAL" : 23}, "indices" : 21, "material" : 7, "mode" : 4}]}, {"primitives" : [{"attributes" : {"POSITION" : 25, "NORMAL" : 26, "TEXCOORD_0" : 27}, "indices" : 24, "material" : 8, "mode" : 4}, {"attributes" : {"POSITION" : 29, "NORMAL" : 30, "TEXCOORD_0" : 31}, "indices" : 28, "material" : 9, "mode" : 4}, {"attributes" : {"POSITION" : 33, "NORMAL" : 34, "TEXCOORD_0" : 35}, "indices" : 32, "material" : 10, "mode" : 4}, {"attributes" : {"POSITION" : 37, "NORMAL" : 38, "TEXCOORD_0" : 39}, "indices" : 36, "material" : 11, "mode" : 4}, {"attributes" : {"POSITION" : 41, "NORMAL" : 42, "TEXCOORD_0" : 43}, "indices" : 40, "material" : 12, "mode" : 4}, {"attributes" : {"POSITION" : 45, "NORMAL" : 46, "TEXCOORD_0" : 47}, "indices" : 44, "material" : 13, "mode" : 4}, {"attributes" : {"POSITION" : 49, "NORMAL" : 50, "TEXCOORD_0" : 51}, "indices" : 48, "material" : 14, "mode" : 4}, {"attributes" : {"POSITION" : 53, "NORMAL" : 54, "TEXCOORD_0" : 55}, "indices" : 52, "material" : 15, "mode" : 4}]}], "nodes" : [{"mesh" : 0, "name" : "Circle.003"}, {"mesh" : 1, "name" : "Circle.002"}, {"mesh" : 2, "name" : "Circle.001"}, {"mesh" : 3, "name" : "Circle"}, {"mesh" : 4, "name" : "Plane"}], "scene" : 0, "scenes" : [{"nodes" : [0, 1, 2, 3, 4]}]}